<?xml version="1.0" encoding="UTF-8"?>
<svg width="43px" height="49px" viewBox="0 0 43 49" version="1.1" xmlns="http://www.w3.org/2000/svg" xmlns:xlink="http://www.w3.org/1999/xlink">
    <!-- Generator: sketchtool 51.3 (57544) - http://www.bohemiancoding.com/sketch -->
    <title>0F70B919-08AF-4123-8178-8D7477B4DB70</title>
    <desc>Created with sketchtool.</desc>
    <defs></defs>
    <g id="Page-1" stroke="none" stroke-width="1" fill="none" fill-rule="evenodd">
        <g id="VSpec" transform="translate(-809.000000, -884.000000)" fill="#000000" fill-rule="nonzero">
            <g id="Group-7" transform="translate(809.000000, 848.000000)">
                <g id="Group-2">
                    <g>
                        <g id="Group">
                            <g id="Gas-pump" transform="translate(0.000000, 36.000000)">
                                <path d="M24.0533333,0 L4.94666667,0 C2.21333333,0 0,2.27206704 0,5.07793296 L0,49 L29,49 L29,5.07793296 C29,2.27206704 26.7866667,0 24.0533333,0 Z M25.2666667,17.8617318 C25.2666667,18.9567039 24.4,19.8463687 23.3333333,19.8463687 L5.66666667,19.8463687 C4.6,19.8463687 3.73333333,18.9567039 3.73333333,17.8617318 L3.73333333,5.81703911 C3.73333333,4.72206704 4.6,3.83240223 5.66666667,3.83240223 L23.3466667,3.83240223 C24.4133333,3.83240223 25.28,4.72206704 25.28,5.81703911 L25.28,17.8617318 L25.2666667,17.8617318 Z" id="Shape"></path>
                                <path d="M41.8816309,19.5734357 L41.8683185,18.1994376 L39.3922218,14.9101694 L39.6584688,13.3418686 L36.9959992,10.1219943 L34.4267161,9.78890383 L33.4416024,10.1219943 L31.8041836,8.30387559 C31.4181255,7.88751253 31.0720045,7.40175563 29.9670796,7.02702888 L26.8653026,6 L26.1996852,7.81811869 L29.4612104,9.02557155 C29.5943339,9.08108663 29.7274574,9.16435924 29.8206438,9.27538939 L32.1103676,11.9123554 L31.1785033,15.8539257 C30.8723193,17.2834389 31.2716897,18.7684671 32.2301788,19.8371323 L32.8691714,20.5449495 L34.7195878,22.6267648 C35.2787064,23.2651881 36.6765029,24.0840355 37.9411759,23.0847641 L39.55197,21.9328263 C39.7915923,22.5573709 40.1776504,23.8758539 40.1776504,25.8882754 L40.1776504,40.3221947 C40.1776504,41.7933442 39.0860378,43.0424334 37.6882413,43.0979484 C36.2105707,43.1534635 34.9858347,41.9182531 34.9858347,40.3915886 L34.9858347,31.009541 C34.9858347,28.0256058 32.6694862,25.6107 29.8073315,25.6107 L26,25.6107 L26,28.5252414 L29.8339562,28.5252414 C31.1518786,28.5252414 32.2168664,29.6355429 32.2168664,31.009541 L32.2168664,40.2805584 C32.2168664,43.3477663 34.5332149,45.9292172 37.4752438,45.9986111 C40.5104591,46.0680049 42.9998681,43.5281903 42.9998681,40.3777098 L42.9998681,25.8882754 C43.0131804,22.0993716 42.0147544,19.7816172 41.8816309,19.5734357 Z M35.1722076,21.4331907 L33.7877234,19.6983446 C33.6679123,19.5456781 33.5347888,19.4207692 33.7211617,18.9766486 L34.4932779,17.4222266 C34.5598396,17.2973176 34.6796507,17.1862875 34.8127742,17.1585299 L35.1988323,17.0474998 C35.3852052,16.9919847 35.5982027,17.0474998 35.7180139,17.214045 L37.6349919,19.4762843 C37.8613019,19.7399809 37.9678006,20.1147077 37.9012389,20.4616769 L37.8479895,20.7808885 C37.6882413,21.7524024 36.6898153,22.3214319 35.8245126,21.9189476 C35.531641,21.7801599 35.2920187,21.5997359 35.1722076,21.4331907 Z" id="Shape"></path>
                            </g>
                        </g>
                    </g>
                </g>
            </g>
        </g>
    </g>
</svg>