<?xml version="1.0" encoding="UTF-8"?>
<svg width="18px" height="18px" viewBox="0 0 18 18" version="1.1" xmlns="http://www.w3.org/2000/svg" xmlns:xlink="http://www.w3.org/1999/xlink">
    <!-- Generator: Sketch 51.3 (57544) - http://www.bohemiancoding.com/sketch -->
    <title>contact-us</title>
    <desc>Created with Sketch.</desc>
    <defs></defs>
    <g id="Symbols" stroke="none" stroke-width="1" fill="none" fill-rule="evenodd">
        <g id="Header/Lite-Gray-thin" transform="translate(-1145.000000, -41.000000)" fill-rule="nonzero">
            <g id="contact-us" transform="translate(1146.000000, 42.000000)">
                <g id="phone" transform="translate(8.000000, 8.000000) scale(-1, 1) translate(-8.000000, -8.000000) translate(4.000000, 4.000000)" fill="#CC0000">
                    <path d="M1.26132101,0.00728738714 C1.20599868,-0.00380698752 1.13961188,-0.00380698752 1.09535402,0.0183817618 C0.497872836,0.25136363 0.12168098,1.10563048 0.0331652497,1.69363234 C-0.243446409,3.60186478 1.26132101,5.2549266 2.64437931,6.34217532 C3.87253507,7.30738591 6.2292664,8.89388149 7.62338916,7.36285779 C7.80042062,7.17425342 8.01064548,6.89689405 7.99958102,6.61953469 C7.96638762,6.15357095 7.53487343,5.82073971 7.20293944,5.56556909 C6.94845672,5.37696472 6.41736233,4.85552911 6.08542834,4.86662349 C5.78668775,4.87771786 5.59859182,5.18836035 5.41049589,5.37696472 L5.0785619,5.70979596 C5.02323957,5.76526784 4.31511373,5.2993041 4.23766246,5.24383223 C3.94998634,5.05522786 3.67337468,4.84443474 3.42995642,4.61145287 C3.18653816,4.378471 2.96524883,4.12330039 2.7771529,3.85703539 C2.72183057,3.77937477 2.26818745,3.10261792 2.31244532,3.04714604 C2.31244532,3.04714604 2.69970164,2.62555981 2.8103463,2.45914419 C3.0427001,2.1041242 3.21973156,1.82676483 2.95418436,1.40517859 C2.85460417,1.24985735 2.73289504,1.12781923 2.60012144,0.994686732 C2.36776765,0.772799239 2.13541386,0.539817371 1.86986666,0.351213002 C1.7260286,0.240269255 1.48261034,0.0405705111 1.26132101,0.00728738714 Z" id="Shape"></path>
                </g>
                <circle id="Oval-3" stroke="#CC0000" cx="8" cy="8" r="8"></circle>
            </g>
        </g>
    </g>
</svg>