<?xml version="1.0" encoding="utf-8"?>
<!-- Generator: Adobe Illustrator 22.1.0, SVG Export Plug-In . SVG Version: 6.00 Build 0)  -->
<svg version="1.1" id="Layer_1" xmlns="http://www.w3.org/2000/svg" xmlns:xlink="http://www.w3.org/1999/xlink" x="0px" y="0px"
	 viewBox="0 0 742.1 203.1" style="enable-background:new 0 0 742.1 203.1;" xml:space="preserve">
<style type="text/css">
	.st0{fill:#D71921;}
	.st1{fill:#FFFFFF;}
</style>
<g>
	<g>
		<path class="st0" d="M0,0h201.6v201.6H0V0z"/>
		<path d="M677.2,107.1l11.3-29.7l11.3,29.7H677.2z M700.3,60.6h-23.5L643.9,141h20.3l7.5-19.6h33.5l7.5,19.6h20.3L700.3,60.6z
			 M534.6,127c-13.3,0-24-12-24-26.7c0-14.8,10.7-26.7,24-26.7c13.2,0,24,12,24,26.7C558.6,115.1,547.8,127,534.6,127 M534.6,57.8
			c-23.5,0-42.5,19-42.5,42.5s19,42.5,42.5,42.5c23.4,0,42.5-19,42.5-42.5C577.1,76.9,558,57.8,534.6,57.8 M367,127
			c-13.2,0-24-12-24-26.7c0-14.8,10.7-26.7,24-26.7c13.2,0,24,12,24,26.7C391,115.1,380.2,127,367,127 M367,57.8
			c-23.5,0-42.5,19-42.5,42.5s19,42.5,42.5,42.5c23.5,0,42.5-19,42.5-42.5C409.5,76.9,390.4,57.8,367,57.8 M472,60.6l-20.8,32.5
			l-20.8-32.5H410l32.2,50.4v30h17.9v-30l32.2-50.4L472,60.6L472,60.6z M648.2,60.6h-68.8V76h25.5v65h17.9V76h25.4L648.2,60.6
			L648.2,60.6z M252,76h25.5v65h17.9V76h25.4V60.6H252V76L252,76z"/>
		<path class="st1" d="M100.8,55c-38.1,0-67.2,19.6-67.2,45.8c0,25.3,28.4,45.8,67.2,45.8s67.2-20.5,67.2-45.8
			C168,74.7,138.9,55,100.8,55L100.8,55z M142.7,74.7c1.4,5.6-5.2,12.7-26.3,15c-1.4-14.4-5.7-26.5-12.7-29.1
			c9.5,0.3,18.5,1.9,26.4,4.7C137.4,68.1,141.9,71.6,142.7,74.7L142.7,74.7z M111.4,100.6c0,18.2-5.5,25.8-10.6,25.8
			s-10.6-7.5-10.6-25.8l0-0.2c3.4,0.3,6.9,0.4,10.6,0.4s7.2-0.1,10.6-0.4L111.4,100.6L111.4,100.6z M100.8,90.4
			c-3.6,0-6.9-0.1-9.9-0.3c1.6-11.9,5.9-18.8,9.9-18.8c4,0,8.3,6.9,9.9,18.8C107.7,90.3,104.4,90.4,100.8,90.4z M58.9,74.7
			c0.8-3,5.3-6.5,12.6-9.3c7.9-2.9,16.9-4.5,26.5-4.8c-7.1,2.6-11.3,14.7-12.7,29.1C64.1,87.4,57.5,80.3,58.9,74.7L58.9,74.7z
			 M43.5,99.2c0-7.7,2.6-14.4,7.1-19.9C51.2,89.5,65,97.1,84.7,99.8l0,0.8c0,24.7,6.3,37.7,13.3,40.4
			C67.9,139.9,43.5,121.4,43.5,99.2z M103.5,141c7.1-2.8,13.5-16.8,13.5-40.4l0-0.8c19.7-2.7,33.5-10.3,34.1-20.5
			c4.5,5.5,7.1,12.2,7.1,19.9C158.1,121.4,133.6,140,103.5,141L103.5,141z"/>
	</g>
</g>
</svg>
