<?xml version="1.0" encoding="UTF-8"?>
<svg width="159px" height="44px" viewBox="0 0 159 44" version="1.1" xmlns="http://www.w3.org/2000/svg" xmlns:xlink="http://www.w3.org/1999/xlink">
    <!-- Generator: Sketch 51.3 (57544) - http://www.bohemiancoding.com/sketch -->
    <title>Group</title>
    <desc>Created with Sketch.</desc>
    <defs></defs>
    <g id="Symbols" stroke="none" stroke-width="1" fill="none" fill-rule="evenodd">
        <g id="TopHeader" transform="translate(-20.000000, -13.000000)" fill-rule="nonzero">
            <g id="Group" transform="translate(20.000000, 13.000000)">
                <rect id="Rectangle-2" fill="#CC0000" x="0" y="0" width="43.129245" height="44"></rect>
                <path d="M23.1077844,30.7719298 C24.5838323,30.1578947 25.9730539,27.0877193 25.9730539,22 C25.9730539,21.9122807 25.9730539,21.9122807 25.9730539,21.8245614 C30.2275449,21.2105263 33.1796407,19.5438596 33.3532934,17.3508772 C34.3083832,18.5789474 34.9161677,19.9824561 34.9161677,21.6491228 C34.8293413,26.4736842 29.5329341,30.5087719 23.1077844,30.7719298 M10.1706587,21.6491228 C10.1706587,19.9824561 10.6916168,18.4912281 11.7335329,17.3508772 C11.8203593,19.5438596 14.8592814,21.2105263 19.1137725,21.8245614 C19.1137725,21.9122807 19.1137725,21.9122807 19.1137725,22 C19.1137725,27.3508772 20.502994,30.245614 21.9790419,30.7719298 C15.3802395,30.5087719 10.1706587,26.4736842 10.1706587,21.6491228 M13.4700599,16.2982456 C13.6437126,15.5964912 14.5988024,14.8947368 16.1616766,14.2807018 C17.8982036,13.6666667 19.8083832,13.3157895 21.8922156,13.2280702 C20.3293413,13.754386 19.4610778,16.3859649 19.1137725,19.5438596 C14.5988024,19.1052632 13.2095808,17.5263158 13.4700599,16.2982456 M22.5,19.7192982 C21.7185629,19.7192982 21.0239521,19.7192982 20.3293413,19.6315789 C20.6766467,17 21.6317365,15.5087719 22.5,15.5087719 C23.3682635,15.5087719 24.3233533,17 24.6706587,19.6315789 C23.9760479,19.7192982 23.2814371,19.7192982 22.5,19.7192982 M24.757485,21.9122807 C24.757485,25.8596491 23.5419162,27.5263158 22.5,27.5263158 C21.3712575,27.5263158 20.242515,25.8596491 20.242515,21.9122807 C20.242515,21.9122807 20.242515,21.9122807 20.242515,21.9122807 C20.9371257,22 21.7185629,22 22.5,22 C23.2814371,22 24.0628743,22 24.757485,21.9122807 C24.757485,21.9122807 24.757485,21.9122807 24.757485,21.9122807 M31.5299401,16.2982456 C31.7904192,17.5263158 30.4011976,19.0175439 25.8862275,19.5438596 C25.6257485,16.3859649 24.6706587,13.754386 23.1077844,13.2280702 C25.1916168,13.3157895 27.1017964,13.6666667 28.751497,14.2807018 C30.4011976,14.8947368 31.3562874,15.6842105 31.5299401,16.2982456 M22.5,12 C14.3383234,12 8,16.2982456 8,22 C8,27.5263158 14.0778443,32 22.5,32 C30.9221557,32 37,27.5263158 37,22 C37,16.2982456 30.6616766,12 22.5,12" id="Fill-4" fill="#FFFFFF"></path>
                <path d="M55,15.9428571 L60.4920369,15.9428571 L60.4920369,29.7428571 L64.3277452,29.7428571 L64.3277452,15.9428571 L69.8197821,15.9428571 L69.8197821,12.6 L55,12.6 L55,15.9428571 Z M140.69321,12.6 L125.786253,12.6 L125.786253,15.8571429 L131.27829,15.8571429 L131.27829,29.7428571 L135.113998,29.7428571 L135.113998,15.9428571 L140.606035,15.9428571 L140.606035,12.6 L140.69321,12.6 Z M102.597653,12.6 L98.0645432,19.5428571 L93.5314334,12.6 L89.1726739,12.6 L96.146689,23.3142857 L96.146689,29.7428571 L99.9823973,29.7428571 L99.9823973,23.4 L106.956412,12.6857143 L102.597653,12.6857143 L102.597653,12.6 Z M79.8449288,12 C74.7887678,12 70.6915339,16.0285714 70.6915339,21 C70.6915339,25.9714286 74.7887678,30 79.8449288,30 C84.9010897,30 88.9983236,25.9714286 88.9983236,21 C89.0854987,16.1142857 84.9010897,12 79.8449288,12 Z M79.8449288,26.7428571 C76.9681475,26.7428571 74.7015926,24.1714286 74.7015926,21.0857143 C74.7015926,17.9142857 77.0553227,15.4285714 79.8449288,15.4285714 C82.72171,15.4285714 84.9882649,18 84.9882649,21.0857143 C85.0754401,24.1714286 82.72171,26.7428571 79.8449288,26.7428571 Z M116.109807,12 C111.053646,12 106.956412,16.0285714 106.956412,21 C106.956412,25.9714286 111.053646,30 116.109807,30 C121.165968,30 125.263202,25.9714286 125.263202,21 C125.263202,16.1142857 121.165968,12 116.109807,12 Z M116.109807,26.7428571 C113.233026,26.7428571 110.966471,24.1714286 110.966471,21.0857143 C110.966471,17.9142857 113.320201,15.4285714 116.109807,15.4285714 C118.986588,15.4285714 121.253143,18 121.253143,21.0857143 C121.253143,24.1714286 118.986588,26.7428571 116.109807,26.7428571 Z M151.93881,12.6 L146.882649,12.6 L139.734283,29.7428571 L144.093043,29.7428571 L145.749371,25.5428571 L152.984912,25.5428571 L154.641241,29.7428571 L159,29.7428571 L151.93881,12.6 Z M146.969824,22.5428571 L149.410729,16.2 L151.851635,22.5428571 L146.969824,22.5428571 Z" id="Fill-2" fill="#000000"></path>
            </g>
        </g>
    </g>
</svg>