<?xml version="1.0" encoding="UTF-8"?>
<svg width="29px" height="48px" viewBox="0 0 29 48" version="1.1" xmlns="http://www.w3.org/2000/svg" xmlns:xlink="http://www.w3.org/1999/xlink">
    <!-- Generator: sketchtool 51.3 (57544) - http://www.bohemiancoding.com/sketch -->
    <title>3CF9CEBA-C75B-457B-A04F-3434F7E5ECF9</title>
    <desc>Created with sketchtool.</desc>
    <defs></defs>
    <g id="Page-1" stroke="none" stroke-width="1" fill="none" fill-rule="evenodd">
        <g id="VSpec-Copy-3" transform="translate(-961.000000, -755.000000)" fill="#000000" fill-rule="nonzero">
            <g id="Group-24" transform="translate(749.000000, 733.000000)">
                <g id="Group-7">
                    <g id="Group-2">
                        <g>
                            <g id="Group">
                                <g id="Gas-pump" transform="translate(0.000000, 22.000000)">
                                    <g id="Hybrid-gas-pump" transform="translate(212.000000, 0.000000)">
                                        <path d="M16.5885057,15 L3.41149425,15 C1.52643678,15 0,16.5301676 0,18.4198324 L0,48 L20,48 L20,18.4198324 C20,16.5301676 18.4735632,15 16.5885057,15 Z M17.4252874,27.0293296 C17.4252874,27.7667598 16.8275862,28.3659218 16.091954,28.3659218 L3.90804598,28.3659218 C3.17241379,28.3659218 2.57471264,27.7667598 2.57471264,27.0293296 L2.57471264,18.9175978 C2.57471264,18.1801676 3.17241379,17.5810056 3.90804598,17.5810056 L16.1011494,17.5810056 C16.8367816,17.5810056 17.4344828,18.1801676 17.4344828,18.9175978 L17.4344828,27.0293296 L17.4252874,27.0293296 Z" id="Shape-Copy"></path>
                                        <path d="M28.210563,28.1620691 L28.201166,27.2346204 L26.4533331,25.0143644 L26.6412721,23.9557613 L24.7618818,21.7823461 L22.9482702,21.5575101 L22.2528958,21.7823461 L21.0970708,20.555116 C20.8245592,20.274071 20.5802385,19.946185 19.8002915,19.6932445 L17.6108018,19 L17.1409543,20.2272301 L19.4432074,21.0422608 C19.5371769,21.0797335 19.6311464,21.1359425 19.696925,21.2108878 L21.3132007,22.9908399 L20.6554141,25.6513998 C20.4392842,26.6163212 20.7211927,27.6187153 21.3977732,28.3400643 L21.8488269,28.8178409 L23.1550031,30.2230662 C23.5496751,30.654002 24.536355,31.2067239 25.4290654,30.5322158 L26.5660965,29.7546578 C26.7352416,30.1762254 27.0077532,31.0662014 27.0077532,32.4245859 L27.0077532,42.1674814 C27.0077532,43.1605073 26.2372032,44.0036425 25.2505233,44.0411152 C24.2074617,44.0785879 23.3429422,43.2448209 23.3429422,42.2143223 L23.3429422,35.8814402 C23.3429422,33.8672839 21.7078726,32.2372225 19.6875281,32.2372225 L17,32.2372225 L17,34.204538 L19.706322,34.204538 C20.6366202,34.204538 21.3883763,34.9539915 21.3883763,35.8814402 L21.3883763,42.1393769 C21.3883763,44.2097422 23.0234458,45.9522216 25.1001721,45.9990625 C27.242677,46.0459033 28.9999069,44.3315284 28.9999069,42.2049541 L28.9999069,32.4245859 C29.0093038,29.8670758 28.3045325,28.3025916 28.210563,28.1620691 Z M23.4744995,29.4174037 L22.4972165,28.2463826 C22.412644,28.1433327 22.3186745,28.0590192 22.4502318,27.7592378 L22.995255,26.7100029 C23.0422397,26.6256894 23.1268123,26.5507441 23.2207818,26.5320077 L23.4932934,26.4570624 C23.6248507,26.4195897 23.7752019,26.4570624 23.8597745,26.5694804 L25.2129355,28.0964919 C25.3726837,28.2744871 25.4478593,28.5274277 25.4008745,28.7616319 L25.3632867,28.9770998 C25.2505233,29.6328716 24.5457519,30.0169665 23.9349501,29.7452896 C23.7282172,29.6516079 23.559072,29.5298217 23.4744995,29.4174037 Z" id="Shape-Copy-2"></path>
                                        <path d="M12.8709677,10.6666667 L7.45920304,10.6666667 C6.35463354,10.6666667 5.45920304,9.77123617 5.45920304,8.66666667 L5.45920304,8 L0,8 L0,4 L5.45920304,4 L5.45920304,3.33333333 C5.45920304,2.22876383 6.35463354,1.33333333 7.45920304,1.33333333 L12.8709677,1.33333333 L12.8709677,0 L15.540797,0 L15.540797,2.66666667 L21,2.66666667 L21,4 L15.540797,4 L15.540797,8 L21,8 L21,9.33333333 L15.540797,9.33333333 L15.540797,12 L12.8709677,12 L12.8709677,10.6666667 Z" id="Combined-Shape-Copy"></path>
                                    </g>
                                </g>
                            </g>
                        </g>
                    </g>
                </g>
            </g>
        </g>
    </g>
</svg>