<svg id="Layer_1" data-name="Layer 1" xmlns="http://www.w3.org/2000/svg" viewBox="0 0 74.48 53.97"><defs><style>.cls-1{fill:#e2e2e2;fill-rule:evenodd;}.cls-2{fill:#a5a4a4;}</style></defs><title>icon-no-image</title><path class="cls-1" d="M73.3,21.94l2.77-2.06a2.22,2.22,0,0,0-1-4l-2.87-.26a5.87,5.87,0,0,0-4.7,1.73L63.11,8.74a9.33,9.33,0,0,0-7.25-5.16,147,147,0,0,0-32.3,0,9.31,9.31,0,0,0-7.24,5.16L12,17.3a5.91,5.91,0,0,0-4.63-1.66l-2.87.26a2.22,2.22,0,0,0-1,4l2.7,2a12.6,12.6,0,0,0-3.71,8.94V54.29a2.33,2.33,0,0,0,2.27,2.37H15.13a2.33,2.33,0,0,0,2.27-2.37V51.23c0-1.52,44.63-1.52,44.63,0v3.06a2.33,2.33,0,0,0,2.27,2.37H74.69A2.32,2.32,0,0,0,77,54.29V30.84a12.64,12.64,0,0,0-3.65-8.9M20.05,35.5l-8.6-.64A4.17,4.17,0,0,1,7.77,32l-.44-1.38a1.87,1.87,0,0,1,1.81-2.43l3.8.05a5.71,5.71,0,0,1,4.44,2.23l3.16,4.16a.56.56,0,0,1-.49.9M17.63,16.94l3.49-6a5.87,5.87,0,0,1,4.53-2.79c3.34-.33,8.67-.72,15.14-.72s11.81.39,15.15.72A5.89,5.89,0,0,1,60.47,11l3.49,6c-5.84-.41-13.46-.73-23.17-.73s-17.32.32-23.16.73M72.69,30.59,72.25,32a4.2,4.2,0,0,1-3.69,2.89L60,35.5a.56.56,0,0,1-.49-.9l3.17-4.16a5.69,5.69,0,0,1,4.43-2.23l3.81-.05a1.87,1.87,0,0,1,1.81,2.43" transform="translate(-2.47 -2.69)"/><path class="cls-2" d="M27.8,28.37h.45v3H27.8Z" transform="translate(-2.47 -2.69)"/><path class="cls-2" d="M31.66,29l-1,2.37h-.19l-1-2.37v2.37H29.1v-3h.64l.86,2.14.87-2.14h.64v3h-.45Z" transform="translate(-2.47 -2.69)"/><path class="cls-2" d="M34.84,30.73H33.37l-.24.62h-.49l1.19-3h.56l1.18,3h-.49Zm-1.34-.39h1.21l-.61-1.58Z" transform="translate(-2.47 -2.69)"/><path class="cls-2" d="M37.37,28.32a1.39,1.39,0,0,1,1.18.59l-.37.21a1,1,0,0,0-.81-.4,1.15,1.15,0,0,0,0,2.29,1.16,1.16,0,0,0,.75-.29v-.54h-.95v-.39h1.4v1.09a1.59,1.59,0,0,1-1.2.53,1.55,1.55,0,1,1,0-3.09Z" transform="translate(-2.47 -2.69)"/><path class="cls-2" d="M39.32,28.37h2v.39H39.77v.87h1.52V30H39.77V31h1.55v.39h-2Z" transform="translate(-2.47 -2.69)"/><path class="cls-2" d="M43.84,29.06v2.29h-.45v-3h.46l1.63,2.23V28.37h.44v3h-.43Z" transform="translate(-2.47 -2.69)"/><path class="cls-2" d="M48.14,28.32a1.54,1.54,0,1,1-1.5,1.54A1.47,1.47,0,0,1,48.14,28.32Zm0,.4a1,1,0,0,0-1,1.14,1,1,0,1,0,1-1.14Z" transform="translate(-2.47 -2.69)"/><path class="cls-2" d="M51,28.76h-.92v-.39h2.29v.39h-.92v2.59H51Z" transform="translate(-2.47 -2.69)"/><path class="cls-2" d="M30.2,36.1H28.74l-.24.62H28l1.19-3h.56l1.18,3h-.49Zm-1.33-.4h1.2l-.6-1.58Z" transform="translate(-2.47 -2.69)"/><path class="cls-2" d="M30.93,33.73h.51l.95,2.5,1-2.5h.51l-1.19,3h-.56Z" transform="translate(-2.47 -2.69)"/><path class="cls-2" d="M36.05,36.1H34.58l-.24.62h-.49l1.19-3h.55l1.19,3h-.49Zm-1.34-.4h1.21l-.61-1.58Z" transform="translate(-2.47 -2.69)"/><path class="cls-2" d="M37.32,33.73h.44v3h-.44Z" transform="translate(-2.47 -2.69)"/><path class="cls-2" d="M38.61,33.73h.44v2.59h1.36v.4h-1.8Z" transform="translate(-2.47 -2.69)"/><path class="cls-2" d="M43,36.1H41.5l-.24.62h-.49l1.19-3h.55l1.19,3h-.49Zm-1.34-.4h1.21l-.61-1.58Z" transform="translate(-2.47 -2.69)"/><path class="cls-2" d="M44.24,33.73h1.4a.76.76,0,0,1,.84.76.68.68,0,0,1-.52.69.74.74,0,0,1,.57.73.78.78,0,0,1-.86.81H44.24ZM45.55,35a.44.44,0,1,0,0-.87h-.87V35Zm0,1.32a.45.45,0,0,0,.5-.47.46.46,0,0,0-.5-.46h-.89v.93Z" transform="translate(-2.47 -2.69)"/><path class="cls-2" d="M47.27,33.73h.44v2.59h1.36v.4h-1.8Z" transform="translate(-2.47 -2.69)"/><path class="cls-2" d="M49.74,33.73h2v.4H50.19V35h1.52v.39H50.19v.93h1.55v.4h-2Z" transform="translate(-2.47 -2.69)"/></svg>